# xmcd
#
# Track frame offsets: 
#        150
#        15137
#        28197
#        40957
#        51480
#        63520
#        78719
#        89936
#        100295
#        108298
#        122310
#        133394
#        145031
#        158602
#        172467
#        182123
#
# Disc length: 2616 seconds
#
# Revision: 0
# Processed by: cddbd v1.4PL0 Copyright (c) Steve Scherf et al.
# Submitted via: ExactAudioCopy v0.90b4
#
DISCID=e40a3610
DTITLE=Various Artist - Heroes of Country and Western - Welcome to Na
DTITLE=shville vol 1
DYEAR=1993
DGENRE=Country
TTITLE0=Tom Dooley (Kingston Trio)
TTITLE1=Folsom prison blues (Johnny Cash)
TTITLE2=Oklahoma hills (Hank Thompson)
TTITLE3=Jambalaya (Johnny Russell)
TTITLE4=On her way to be a woman (Don Williams)
TTITLE5=For the good times (Kenny Rogers)
TTITLE6=Dream baby (Willie Nelson and Waylon Jennings)
TTITLE7=Oh lonesome me (Dave Dudley)
TTITLE8=Do waka do (Roger Miller)
TTITLE9=Every road (Carl Perkins)
TTITLE10=Send me the pillow that you dream on (Hank Locklin')
TTITLE11=Big river (Johnny Cash)
TTITLE12=Tennessee waltz (Patti Page)
TTITLE13=Big bad John (Jimmy Dean)
TTITLE14=The girl most likely (Jeanie C Riley)
TTITLE15=Don't fence me in (Frankie Laine)
EXTD=
EXTT0=
EXTT1=
EXTT2=
EXTT3=
EXTT4=
EXTT5=
EXTT6=
EXTT7=
EXTT8=
EXTT9=
EXTT10=
EXTT11=
EXTT12=
EXTT13=
EXTT14=
EXTT15=
PLAYORDER=
